<svg xmlns="http://www.w3.org/2000/svg" fill="none" viewBox="0 0 239 240"><path fill="#1A285F" fill-rule="evenodd" d="M239 120.005C239 54.008 185.497.505 119.5.505S0 54.008 0 120.005c0 66 53.503 119.5 119.5 119.5s119.5-53.5 119.5-119.5M97.75 53.615c-.94 1.845-.94 4.258-.94 9.086v27.36c0 1.206 0 1.81.152 2.367.135.493.357.96.655 1.375.337.47.805.85 1.74 1.61l6.922 5.623c1.128.916 1.692 1.374 1.897 1.926a2.16 2.16 0 0 1 0 1.5c-.205.551-.769 1.01-1.897 1.926l-6.921 5.622c-.936.76-1.404 1.141-1.74 1.61a4.3 4.3 0 0 0-.656 1.376c-.152.558-.152 1.161-.152 2.366v59.946c0 4.827 0 7.241.94 9.085a8.62 8.62 0 0 0 3.767 3.767c1.843.939 4.257.939 9.085.939h17.796c4.828 0 7.242 0 9.085-.939a8.62 8.62 0 0 0 3.767-3.767c.94-1.844.94-4.258.94-9.085v-27.36c0-1.206 0-1.809-.152-2.367a4.3 4.3 0 0 0-.655-1.376c-.337-.469-.805-.849-1.741-1.61l-6.921-5.622c-1.128-.916-1.692-1.374-1.897-1.926a2.16 2.16 0 0 1 0-1.5c.205-.552.769-1.01 1.897-1.926l6.921-5.622c.936-.761 1.404-1.141 1.741-1.61.298-.416.52-.882.655-1.376.152-.558.152-1.161.152-2.367V62.701c0-4.828 0-7.241-.94-9.085a8.6 8.6 0 0 0-3.767-3.767c-1.843-.94-4.257-.94-9.085-.94h-17.796c-4.828 0-7.242 0-9.085.94a8.6 8.6 0 0 0-3.767 3.767" clip-rule="evenodd"/></svg>